<?xml version="1.0" standalone="no"?>
<!DOCTYPE svg PUBLIC "-//W3C//DTD SVG 20010904//EN"
 "http://www.w3.org/TR/2001/REC-SVG-20010904/DTD/svg10.dtd">
<svg version="1.0" xmlns="http://www.w3.org/2000/svg"
 width="329.000000pt" height="303.000000pt" viewBox="0 0 329.000000 303.000000"
 preserveAspectRatio="xMidYMid meet">

<g transform="translate(0.000000,303.000000) scale(0.100000,-0.100000)"
fill="#000000" stroke="none">
<path d="M1510 1409 c-35 -10 -89 -63 -90 -88 0 -10 9 -12 33 -7 91 16 118 17
150 7 26 -9 41 -9 60 0 19 9 44 9 99 1 40 -6 74 -9 76 -7 2 1 -6 21 -17 43
-18 36 -25 40 -79 51 -40 8 -68 8 -85 2 -17 -7 -28 -7 -32 -1 -8 12 -68 11
-115 -1z"/>
<path d="M1620 1280 c-9 -17 -8 -20 10 -20 11 0 20 6 20 14 0 24 -18 28 -30 6z"/>
<path d="M1475 1270 c-14 -6 2 -9 50 -9 49 -1 65 2 55 9 -18 12 -78 12 -105 0z"/>
<path d="M1718 1263 c12 -2 32 -2 45 0 12 2 2 4 -23 4 -25 0 -35 -2 -22 -4z"/>
<path d="M2366 1137 c-41 -73 -126 -176 -185 -222 -28 -22 -50 -44 -51 -48 0
-5 4 -6 9 -3 5 3 15 -1 22 -10 10 -13 10 -17 -2 -25 -9 -6 -18 -4 -25 6 -6 8
-14 15 -18 15 -5 0 2 -17 21 -49 2 -2 12 4 23 14 19 17 20 17 41 -6 l21 -24
-16 25 c-9 14 -24 36 -33 49 -16 22 -16 24 8 42 34 26 49 23 56 -12 4 -19 9
-26 13 -19 5 7 14 9 21 5 8 -5 -1 8 -19 27 l-32 34 23 22 c40 38 67 20 30 -20
-15 -17 -15 -18 1 -18 9 0 15 4 12 9 -3 5 1 14 8 20 10 8 16 9 21 1 3 -5 12
-10 18 -10 7 0 -4 14 -23 30 -30 24 -32 30 -17 35 9 4 17 13 17 21 0 21 18 17
31 -7 8 -16 8 -23 -1 -29 -19 -11 2 -18 30 -9 16 4 19 7 8 8 -11 1 -18 9 -18
21 0 11 -7 23 -15 26 -20 8 -19 24 4 54 19 24 20 24 40 6 11 -10 17 -25 15
-34 -5 -15 -4 -15 9 0 8 10 17 15 20 11 4 -3 7 -4 7 -1 0 3 -16 15 -35 27 -31
18 -34 24 -25 41 12 22 45 16 36 -6 -4 -9 2 -14 17 -14 22 1 22 1 -4 24 -14
12 -28 28 -30 34 -2 7 -17 -12 -33 -41z"/>
<path d="M860 1173 c-8 -2 -21 -7 -29 -9 -11 -4 -10 -8 4 -24 18 -20 18 -21
-1 -36 -11 -9 -2 -6 23 6 48 23 53 24 53 10 0 -6 -16 -20 -35 -32 -20 -11 -34
-23 -31 -25 3 -3 18 4 34 16 36 25 48 26 56 5 9 -23 -3 -36 -25 -29 -11 4 -19
2 -19 -5 0 -6 15 -10 36 -8 30 2 40 -2 57 -24 11 -15 17 -31 13 -35 -4 -5 -13
0 -20 10 -15 19 -32 22 -41 7 -3 -5 0 -7 8 -4 8 3 19 -2 26 -10 10 -11 8 -19
-11 -37 -27 -26 -3 -15 29 14 38 34 48 8 11 -32 -31 -33 -31 -34 -2 -8 37 33
43 33 71 3 22 -23 22 -23 3 -41 -16 -14 -23 -15 -34 -6 -13 11 -13 9 -3 -13
l12 -26 23 27 c12 16 27 27 32 26 18 -5 10 5 -56 74 -36 37 -84 97 -107 132
-28 42 -43 59 -45 48 -4 -19 -42 -24 -42 -6 0 7 8 18 18 25 18 14 16 16 -8 7z"/>
<path d="M2360 1060 c0 -11 4 -20 9 -20 5 0 7 9 4 20 -3 11 -7 20 -9 20 -2 0
-4 -9 -4 -20z"/>
<path d="M455 964 c-11 -8 -27 -19 -35 -24 -8 -5 -12 -11 -8 -15 7 -7 78 36
78 48 0 11 -13 8 -35 -9z"/>
<path d="M2781 961 c-9 -16 -4 -23 29 -46 22 -16 44 -25 48 -21 4 4 -1 12 -11
17 -26 15 -21 32 8 25 34 -9 31 5 -6 27 -39 22 -56 22 -68 -2z m39 -12 c0 -5
-7 -9 -15 -9 -15 0 -20 12 -9 23 8 8 24 -1 24 -14z"/>
<path d="M466 922 c-21 -14 -33 -28 -27 -30 7 -2 18 1 26 8 8 6 19 9 24 6 6
-4 15 2 20 13 22 39 11 40 -43 3z"/>
<path d="M1037 909 c7 -7 15 -10 18 -7 3 3 -2 9 -12 12 -14 6 -15 5 -6 -5z"/>
<path d="M515 899 c-4 -6 -13 -8 -21 -5 -13 5 -41 -31 -31 -41 6 -6 77 39 77
50 0 11 -18 9 -25 -4z"/>
<path d="M2197 893 c-10 -9 -9 -33 1 -33 4 0 8 9 9 20 2 21 0 24 -10 13z"/>
<path d="M2740 892 c0 -4 16 -24 36 -43 31 -29 35 -31 29 -11 -5 18 -2 22 14
22 34 0 24 16 -18 28 -45 14 -61 15 -61 4z m50 -22 c0 -5 -2 -10 -4 -10 -3 0
-8 5 -11 10 -3 6 -1 10 4 10 6 0 11 -4 11 -10z"/>
<path d="M512 852 c-33 -27 -33 -28 -14 -45 25 -23 38 -21 68 8 20 20 23 28
14 45 -14 27 -28 25 -68 -8z m58 1 c0 -12 -33 -43 -47 -43 -17 0 -17 10 4 32
16 18 43 25 43 11z"/>
<path d="M1151 838 c-7 -11 -10 -22 -7 -25 3 -3 8 2 12 11 6 17 34 23 34 7 0
-27 -15 -41 -44 -42 -24 -1 -26 -3 -8 -6 17 -3 22 -9 18 -21 -7 -19 20 11 40
44 6 10 15 14 23 10 9 -6 7 -16 -9 -42 -28 -49 -25 -56 6 -11 17 25 31 36 41
33 8 -3 17 -6 19 -6 2 0 4 -5 4 -11 0 -6 -9 -8 -22 -4 -18 5 -20 4 -8 -4 8 -6
27 -8 43 -5 31 6 31 5 15 -31 -7 -17 -20 -25 -37 -26 -16 0 -20 -3 -11 -6 8
-3 18 -11 22 -16 3 -6 16 9 27 32 26 50 46 46 25 -5 -8 -20 -13 -38 -11 -40 3
-3 12 13 21 36 29 72 45 45 21 -35 -3 -11 4 0 15 24 16 34 23 42 33 32 9 -9 9
-16 -1 -31 -6 -10 -8 -22 -3 -25 5 -3 14 9 20 26 15 44 34 27 27 -25 l-6 -41
13 39 c6 21 15 38 20 37 4 0 19 -1 33 -1 22 0 24 -3 18 -22 -4 -13 -12 -26
-18 -30 -8 -6 -8 -8 1 -8 6 0 14 -8 16 -17 4 -14 5 -13 6 4 0 12 9 27 19 32 9
6 11 11 5 11 -7 0 -13 7 -13 16 0 11 5 14 16 10 9 -3 22 -6 30 -6 9 0 14 -12
14 -37 0 -47 7 -40 11 12 3 34 1 40 -15 38 -77 -6 -259 45 -370 106 -71 38
-73 39 -85 19z"/>
<path d="M2726 835 c18 -27 13 -31 -17 -15 -23 13 -24 7 -2 -27 17 -26 17 -26
-5 -14 -13 7 -28 10 -35 8 -7 -2 7 -14 31 -26 49 -25 73 -19 45 11 -17 19 -17
19 10 13 36 -10 36 13 -1 48 -35 34 -48 35 -26 2z"/>
<path d="M571 790 c-19 -16 -32 -33 -28 -36 7 -7 75 45 76 59 2 14 -14 6 -48
-23z"/>
<path d="M1975 783 c-28 -12 -55 -23 -62 -23 -6 0 -15 -5 -19 -11 -4 -8 3 -9
24 -4 28 6 31 4 42 -30 7 -20 14 -34 17 -32 2 3 -3 21 -11 41 -15 36 -15 36
16 52 22 12 33 13 42 4 11 -11 1 -22 -29 -33 -6 -3 -6 -8 -1 -13 5 -5 11 -4
13 4 7 18 30 15 42 -5 16 -28 13 -9 -7 34 l-17 39 -50 -23z"/>
<path d="M1396 781 c-4 -5 3 -7 14 -4 23 6 26 13 6 13 -8 0 -17 -4 -20 -9z"/>
<path d="M598 757 c-41 -24 -51 -42 -17 -32 19 6 21 4 16 -14 -8 -32 10 -25
37 16 38 55 25 66 -36 30z m32 -11 c0 -3 -4 -8 -10 -11 -5 -3 -10 -1 -10 4 0
6 5 11 10 11 6 0 10 -2 10 -4z"/>
<path d="M1570 759 c0 -5 5 -7 10 -4 6 3 10 8 10 11 0 2 -4 4 -10 4 -5 0 -10
-5 -10 -11z"/>
<path d="M2624 745 c-9 -23 6 -37 39 -33 19 2 32 -2 35 -11 3 -10 0 -12 -11
-8 -9 3 -19 2 -22 -2 -9 -16 24 -20 39 -5 23 23 9 44 -30 44 -36 0 -47 15 -16
23 12 4 11 5 -6 6 -12 0 -25 -6 -28 -14z"/>
<path d="M1235 733 c-5 -14 -3 -15 6 -6 6 6 19 9 28 6 14 -4 14 -3 1 6 -21 15
-27 14 -35 -6z"/>
<path d="M1823 733 c-19 -4 -21 -7 -10 -24 10 -16 9 -21 -1 -28 -10 -6 -10
-11 3 -21 9 -7 15 -9 14 -4 -1 5 0 14 1 19 1 6 3 19 4 30 0 11 7 19 14 18 6
-2 12 2 12 7 0 6 -3 9 -7 9 -5 -1 -18 -4 -30 -6z"/>
<path d="M650 701 c-19 -16 -32 -32 -28 -37 5 -4 17 1 28 11 21 19 21 19 10
-9 -16 -42 -4 -44 35 -6 37 36 40 56 3 24 -23 -20 -23 -20 -2 31 9 23 -8 18
-46 -14z"/>
<path d="M1885 716 c-18 -19 -26 -36 -18 -36 9 0 37 40 31 45 -2 2 -8 -2 -13
-9z"/>
<path d="M1920 715 c0 -12 -6 -27 -12 -34 -11 -10 -9 -11 6 -5 11 4 22 2 28
-7 11 -17 0 28 -13 51 -7 12 -8 11 -9 -5z"/>
<path d="M1708 713 c15 -6 16 -43 1 -43 -5 0 -8 -4 -4 -10 12 -20 35 2 29 27
-6 21 -3 24 12 21 11 -2 20 -12 20 -23 1 -11 2 -28 3 -37 2 -39 16 -15 16 27
l0 45 -45 -1 c-25 0 -39 -3 -32 -6z"/>
<path d="M2579 694 c-11 -13 -8 -20 20 -46 34 -32 58 -31 70 3 4 12 2 12 -12
1 -20 -17 -38 -7 -30 15 4 11 3 14 -5 9 -19 -12 -35 3 -21 20 7 8 7 14 1 14
-5 0 -15 -7 -23 -16z"/>
<path d="M1485 691 c-3 -6 3 -9 14 -8 11 0 17 5 15 9 -7 11 -22 10 -29 -1z"/>
<path d="M2540 650 c0 -5 4 -10 9 -10 5 0 11 -7 14 -15 5 -11 1 -12 -20 -4
-39 15 -40 2 -3 -36 35 -36 57 -40 25 -5 -14 15 -15 20 -4 20 8 0 21 -4 29 -9
31 -20 30 3 -1 35 -33 34 -49 42 -49 24z"/>
<path d="M726 615 c-15 -19 -23 -35 -18 -35 10 0 62 53 62 63 0 17 -20 4 -44
-28z"/>
<path d="M760 595 c-18 -19 -31 -38 -27 -41 4 -4 15 4 26 17 23 27 26 23 11
-15 -15 -40 5 -40 39 1 33 40 34 58 1 28 -20 -18 -20 -18 -14 13 4 18 5 32 2
32 -2 0 -19 -16 -38 -35z"/>
<path d="M2474 586 c-6 -15 19 -70 37 -81 6 -4 9 0 7 11 -2 14 3 18 20 17 32
-4 27 8 -19 40 -31 21 -41 24 -45 13z m34 -41 c-3 -3 -9 2 -12 12 -6 14 -5 15
5 6 7 -7 10 -15 7 -18z"/>
<path d="M837 564 c-4 -4 -4 -23 -1 -41 4 -21 2 -33 -5 -33 -6 0 -11 7 -11 15
0 8 -5 15 -11 15 -6 0 -9 -8 -7 -17 2 -12 12 -18 28 -18 23 0 25 4 23 38 -1
20 2 37 7 37 6 0 10 -7 10 -15 0 -8 5 -15 11 -15 6 0 9 8 7 18 -3 17 -38 28
-51 16z"/>
<path d="M2413 543 c-19 -7 -16 -20 14 -58 22 -27 30 -32 45 -24 23 13 23 23
-4 59 -21 30 -31 33 -55 23z m27 -19 c0 -8 -4 -12 -10 -9 -5 3 -10 10 -10 16
0 5 5 9 10 9 6 0 10 -7 10 -16z m30 -40 c0 -14 -3 -14 -15 -4 -8 7 -15 14 -15
16 0 2 7 4 15 4 8 0 15 -7 15 -16z"/>
<path d="M910 514 c0 -9 -9 -27 -20 -41 -31 -40 -12 -42 20 -3 22 27 32 32 41
23 9 -9 7 -18 -10 -41 -22 -32 -26 -42 -13 -42 4 0 17 16 30 36 l23 36 -28 24
c-33 28 -43 30 -43 8z"/>
<path d="M2370 504 c0 -3 10 -19 21 -36 15 -20 18 -33 11 -40 -7 -7 -18 1 -34
26 -12 20 -26 36 -30 36 -12 0 -10 -8 15 -45 23 -37 47 -44 66 -21 10 11 7 22
-11 50 -21 32 -38 46 -38 30z"/>
<path d="M1004 462 c3 -5 -4 -21 -15 -38 -20 -31 -24 -44 -11 -44 4 0 15 14
24 30 9 17 25 30 35 30 17 1 17 2 -1 15 -21 16 -40 20 -32 7z"/>
<path d="M2305 441 c8 -25 -11 -36 -24 -14 -5 10 -12 15 -16 11 -4 -3 6 -25
21 -48 16 -23 30 -37 32 -31 2 6 -1 18 -8 25 -8 11 -8 16 1 22 7 4 18 -1 25
-11 24 -33 26 -8 2 29 -25 39 -43 48 -33 17z"/>
<path d="M1041 401 c-20 -39 -21 -45 -8 -59 9 -8 22 -12 31 -9 18 7 49 64 43
80 -2 7 -12 -5 -22 -25 -11 -21 -25 -38 -32 -38 -17 0 -16 15 3 45 9 13 14 30
12 37 -3 7 -15 -7 -27 -31z"/>
<path d="M2208 409 c-16 -9 -16 -12 4 -47 12 -20 23 -39 24 -40 7 -10 44 11
44 24 0 15 -39 74 -49 74 -3 0 -14 -5 -23 -11z m32 -19 c0 -5 -4 -10 -10 -10
-5 0 -10 5 -10 10 0 6 5 10 10 10 6 0 10 -4 10 -10z m20 -41 c0 -5 -4 -9 -10
-9 -5 0 -10 7 -10 16 0 8 5 12 10 9 6 -3 10 -10 10 -16z"/>
<path d="M1125 390 c4 -6 1 -26 -5 -46 -14 -43 -5 -59 10 -18 6 16 19 35 28
42 15 11 15 14 2 22 -20 13 -43 13 -35 0z"/>
<path d="M2140 359 c0 -18 -2 -19 -15 -9 -26 22 -28 4 -2 -22 13 -13 26 -31
29 -39 10 -26 15 -5 10 44 -4 46 -22 67 -22 26z"/>
<path d="M1175 329 c-16 -35 -17 -42 -4 -50 8 -5 20 -9 28 -9 11 0 10 4 -4 13
-21 16 -12 39 13 30 14 -5 15 -3 5 8 -19 19 -16 29 10 29 18 0 19 2 7 10 -26
17 -36 11 -55 -31z"/>
<path d="M2047 343 c-10 -10 -8 -52 3 -74 11 -20 36 -25 57 -11 16 10 5 52
-13 52 -17 0 -18 -17 -1 -23 9 -3 9 -8 1 -16 -14 -15 -32 5 -36 40 -2 18 1 23
15 21 9 -2 17 2 17 8 0 11 -33 14 -43 3z"/>
<path d="M1270 311 c-16 -30 -12 -68 7 -76 24 -8 53 28 53 66 0 24 -4 29 -25
29 -14 0 -29 -8 -35 -19z m45 0 c6 -11 -14 -61 -25 -61 -15 0 -18 13 -8 41 10
29 22 37 33 20z"/>
<path d="M1972 318 c-18 -18 -15 -52 6 -79 40 -48 73 16 36 69 -17 25 -25 27
-42 10z m37 -39 c14 -40 14 -39 -3 -39 -15 0 -26 21 -26 51 0 30 17 22 29 -12z"/>
<path d="M1350 287 c-5 -16 -10 -39 -9 -51 0 -21 1 -20 11 2 6 12 18 22 27 23
10 0 12 2 4 6 -7 2 -13 12 -13 20 0 9 6 13 15 10 8 -4 17 -2 20 2 2 5 -6 11
-20 13 -20 4 -26 0 -35 -25z"/>
<path d="M1440 291 c0 -6 5 -11 10 -11 6 0 8 -15 4 -40 -4 -27 -3 -40 5 -40 6
0 11 13 11 29 0 16 7 37 16 45 13 14 13 16 1 16 -9 0 -22 3 -31 6 -9 3 -16 1
-16 -5z"/>
<path d="M1904 261 c8 -56 12 -60 36 -54 25 7 27 21 3 19 -13 -1 -19 8 -21 29
-2 17 -8 35 -14 40 -7 7 -9 -3 -4 -34z"/>
<path d="M1508 241 c-3 -45 -1 -50 20 -54 12 -2 22 0 22 4 0 5 -7 9 -15 9 -23
0 -18 20 7 29 18 6 19 9 5 14 -21 8 -22 27 -1 27 8 0 12 5 9 10 -3 6 -14 10
-25 10 -15 0 -19 -9 -22 -49z"/>
<path d="M1827 283 c-12 -11 -8 -58 6 -77 19 -26 51 -17 55 16 6 48 -34 88
-61 61z m41 -47 c2 -28 0 -37 -10 -34 -7 3 -14 22 -16 42 -2 28 0 37 10 34 7
-3 14 -22 16 -42z"/>
<path d="M1579 256 c-17 -37 -4 -76 26 -76 16 0 25 6 25 16 0 13 -3 14 -13 5
-18 -14 -27 -4 -27 29 0 34 9 43 28 27 13 -10 14 -9 10 3 -8 25 -37 23 -49 -4z"/>
<path d="M1658 274 c-11 -11 -10 -66 2 -84 8 -12 10 -11 10 8 0 13 6 22 15 22
8 0 15 -9 15 -20 0 -11 5 -20 10 -20 6 0 10 20 10 44 0 25 -4 48 -10 51 -5 3
-10 -3 -10 -14 0 -27 -28 -27 -32 0 -2 11 -6 17 -10 13z"/>
<path d="M1738 274 c-8 -15 3 -94 14 -94 6 0 8 11 6 25 -3 14 -1 25 3 25 13 0
11 13 -4 35 -8 10 -16 14 -19 9z"/>
<path d="M1777 248 c-2 -18 0 -42 7 -53 10 -18 11 -15 14 24 4 53 -13 78 -21
29z"/>
</g>
</svg>
